<svg xmlns="http://www.w3.org/2000/svg" viewBox="0 0 1602.5 681"><path d="M1602.5 139.5c0 1.1-0.7 2.1-1.8 2.4L644.5 375.6c-7.7 2-18.7 11.1-21.7 21.5l-71.4 250.3c-1.5 5.2-3 5.5-7.4 6.6l-32 7.7c-3.4 0.8-5.3-1.3-4.4-4.7 0.2-0.6 0.5-1.2 0.8-1.8 1.4-2.5 1.8-5.2 1.9-8 0.2-6.4-0.8-12.6-2.8-18.7l-13.7-41.4 -23.4 81.1c-0.7 2.7-2.3 4.1-5.1 4.7l-34.3 8.2c-2.6 0.6-4.1-1-4-3.6 0-1 0.3-2.1 0.8-3 1.6-3 1.9-6.3 2-9.6 0.1-7.4-1.5-14.4-3.8-21.3l-58.3-174.7c-1.6-4.9-3.6-9.6-6.2-14.1 -1.4-2.3-3.1-4.2-5.4-5.7 -3.2-2.1-6.7-3.1-10.5-2.3L2.9 521.4c-0.1 0-0.3 0-0.4 0 -1.4 0-2.5-1.1-2.5-2.5 0-1.1 0.7-2.1 1.8-2.4l347.5-84.3c7.9-1.9 15.4-3.7 24.1-4.8 5.1-0.6 10 0.2 14.6 2.5 4.2 2.1 7.9 5.4 9.6 9.7l55.9 166c0 0 14.3-49.1 20.9-71.6 0.6-2.1 0.5-4-0.2-6.1l-26-78.6c-2.9-8.7-7-16.8-13.1-23.8 -1.4-1.6-2.7-3.2-4.6-4.4 -3.2-2-2-7.2 1.3-8.6 0.6-0.2 1.3-0.4 1.9-0.5l45.5-10.9c3.3-0.8 5.1 1.1 4.6 4.4 -0.2 1.1-0.7 2.3-1.3 3.3 -1 2-1.6 4.2-1.7 6.5 -0.2 5.6 0.1 11.1 1.8 16.5l11.1 33.8 10-33.9c1.6-5.5 2.7-11 3.2-16.7 0.3-4.3 0.2-8.4-2-12.3 -0.5-1-0.8-2.2-0.8-3.4 -0.1-2.2 1.1-3.8 3.1-4.6 1-0.4 3.1-0.8 3.1-0.8l42-10c0.9-0.2 1.5-0.4 2.3-0.5 3.3-0.5 5.4 2 4.4 5.2 -0.3 1-0.9 1.9-1.5 2.8 -1.6 2.3-3.2 4.5-4.9 6.8 -3.5 4.9-6.5 10.1-8.2 15.8l-31.1 105.6c-0.9 2.1-0.6 4 0.1 6.1 6 17.8 20.8 61.8 20.8 61.8l55.4-192.8c4-13.1 14.2-21.3 27.3-25.4 11.7-3.7 35.7-9.2 35.7-9.2l947.1-222.6c0.1 0 0.3 0 0.5 0C1601.4 137 1602.5 138.1 1602.5 139.5z"></path><path d="M808 394.1c0-2.5-0.1-5-0.6-7.5 -1.2-6.3-7.2-12.7-15.4-10.9l-117.9 28c-4.8 1.1-8.7 3.7-11.8 7.5 -4.1 5-6.2 10.6-6.2 17.1 0.1 20.5 0 123.2 0 123.2 0 2.4 0.2 4.8 1 7 2.2 6.5 8.5 10.9 15.2 9.4l117.2-28.1c5.4-1.3 9.6-3.8 13-8.1 3.7-4.7 5.5-10.1 5.5-16.2L808 394.1zM691.5 524.4v-85.5l80.9-19.3v85.5L691.5 524.4z"></path><path d="M1237.9 175.2l-34-52c1-0.9 1.6-1.5 2.3-2.1 10.8-9.6 18.4-19.5 21.9-33.5 1.9-7.8 1.9-17.6 0.4-25.4 0 0 0 0 0 0 -0.3-1.8-0.8-3.6-1.3-5.5 -3.3-10.7-9.7-18.9-20.2-23.6 -7.7-3.4-15.9-3.9-24-2L1077.1 56.5c-1.2 0.3-3.1 0.7-3.4 0.9 -1.8 0.9-2.9 2.2-3.2 4.2 -0.2 1.9 0.8 3.2 2.5 4.1 5.7 3.1 8.8 8.2 10.2 14.4 0.7 3.1 0.7 6.3 0.7 9.5l0 98.4c-0.1 3.9-0.8 7.6-2.1 11.2 -2.1 5.7-4.8 10.9-9.4 14.9 -1.2 1-1.8 2.2-1.9 3.8 -0.1 1.9 1.4 3.3 3.2 3.2 0.9-0.1 2.1-0.2 3.1-0.5l50.1-12c1-0.2 2.1-0.5 3-1 1.6-0.8 2.6-2.3 2.7-4.1 0.1-1.8-0.9-2.9-2.5-3.6 -3.3-1.4-5.5-4-7.3-7 -2.6-4.2-3.4-8.8-3.4-13.6V148l45.7-10.9 19.9 30.6c2.1 3.3 3.6 6.8 4.3 10.6 0.6 3.2 0.5 6.3-1.6 9.1 -0.6 0.8-1 1.9-1.2 2.9 -0.4 2.1 1.1 3.7 3.2 3.3l45.5-10.9C1238.2 181.7 1240.2 178.4 1237.9 175.2zM1185.2 93.2c0 0-65.9 15.7-65.9 15.7V85.6c0 0 62-14.7 62-14.7 4.9-1.1 11.2 1.6 12.9 7.6 0 0.1 0-0.1 0 0C1195.6 84.8 1192.5 91.5 1185.2 93.2z"></path><path d="M886.1 391.4v1.3c-0.8 0.2-1.7 0.4-2.5 0.6C882.9 393.4 885.6 391.8 886.1 391.4z"></path><path d="M1036.4 182l0 44c-0.1 3.3-0.9 4.4-4.3 5.2L888.7 265.5c-2.7 0.7-4.3-1.3-3.8-4 0.3-1.3 1-2.4 2-3.3 7.8-7.1 10.8-16.3 11.4-26.6 0.1-1.6 0-3.2 0-4.8l0-92.3c0-2.9-0.2-6.1-0.6-8.9 -1.1-6.7-4.2-12.3-10.5-15.4 -3.4-1.7-2.8-6.5 0.3-8 0.9-0.4 2-0.7 3-0.9l131.3-31.4c5.7-1.3 6 0.6 6 4.6l0 42.9c0 0.8 0 1.6-0.1 2.4 -0.1 2.5-1.8 3.8-3.9 4.5 -0.5 0.2-1.3-0.1-1.8-0.4 -0.5-0.3-1-0.9-1.3-1.4 -5.3-7.3-12.5-10-20.9-8l-66 15.8v23.4l71.7-17.2 0.1 39 -71.7 17.2 0.2 23.3 73.2-17.6c10.2-2.3 17.5-8.1 22.1-17.4 0.9-1.7 1.8-3.2 3.9-3.5 1.7-0.2 2.9 0.6 3.1 2.2C1036.4 180.4 1036.4 182 1036.4 182z"></path><path d="M1421.7 271.3c0.7-20.1 9-36.3 25.1-48.5 5-3.8 10.7-6.4 16.9-7.8l90.8-21.7c1-0.3 1.7-0.3 2.7-0.4 1.9-0.1 3.3 1.4 3.1 3.3 -0.2 1.6-0.8 3.1-2.1 4.1 -4.8 4-7.4 9.3-9.3 15 -1.3 3.9-1.7 8-1.8 12.1 0 1.3 0 2.7-0.1 4 -0.2 1.7-1.1 3.2-2.7 3.6l-78.8 18.8c-4.6 1.1-7.8 5.9-7.2 10.9 0.4 3.2 3 5.2 6.1 4.8 1.2-0.1 2.3-0.4 3.5-0.7l49.6-11.8c6.3-1.5 12.5-1.9 18.8-0.5 9.2 2 16.5 6.9 21.9 14.5 4.4 6.1 6.9 13 7.9 20.5 1.7 11.8-0.1 23.2-4.6 34.1 -5.1 12.5-12.8 23-23.7 31.1 -6 4.5-12.6 7.6-19.9 9.3l-102.4 24.3c0 0-2.3 0.6-3.5 0.8 -2.3 0.3-3.8-1.3-3.5-3.6 0.2-1.5 0.9-2.8 2-3.8 8-7.2 10.9-16.6 11.2-27 0.1-1.3 0-2.6 0.1-4 0.2-1.7 1-3.1 2.7-3.5l91.9-22c8.7-2.2 15.3-10.8 14.9-19.7 -0.1-1.6-0.3-3.2-0.9-4.6 -1.8-5-6.3-8.4-11.5-7.1 0 0-56.1 13.4-56.1 13.4 -5.2 1.2-10.5 1.3-15.7 0.1 -8.5-2-15-6.9-19.6-14.4 -3.3-5.4-5.2-11.3-5.7-17.6C1421.6 275.3 1421.7 273.3 1421.7 271.3z"></path><path d="M1391 298.8c-1.8-10.6-5.7-20.3-12.2-28.9 -7.7-10.3-17.7-17.2-30.2-20.4 -9.3-2.4-18.6-2.5-27.8-0.3l-88.2 21.1c-1 0.2-2.1 0.5-3 1 -1.8 1-2.6 2.6-2.5 4.6 0 1.7 1 2.6 2.5 3.3 3.4 1.5 5.7 4.3 7.5 7.4 2.6 4.5 3.6 9.3 3.6 14.4l-0.1 98.8c-0.1 10.6-3.3 20-11.4 27.3 -1.2 1.1-2 2.5-2 4.2 -0.1 2.1 1.5 3.7 3.5 3.3l87.1-20.8c11.7-2.8 24.6-5.9 34.2-13.2 16.9-12.8 27.7-25.8 35.1-45.6C1393 338.5 1393.9 316.1 1391 298.8zM1353.9 341c-3.9 10.6-10.2 19.3-19.2 26.1 -4.7 3.5-9.9 5.9-15.6 7.3l-43.3 10.3V299.2l43-10.2c10-2.4 19.1-0.5 27.1 6.1 5.6 4.7 8.8 10.9 10.2 17.9C1358.1 322.5 1357.3 331.8 1353.9 341z"></path><path d="M664.5 161.6c-0.5 0.8-1.1 1.5-1.7 2.1 -7.8 7.8-10.9 17.3-10.9 28.2v109.6c0 3.6-0.5 5.5-1.3 8.2 -1.7 5.7-4.9 10.2-9.5 13.8 -2.3 1.8-5.1 2.8-7.9 3.5l-116 27.4c-2.3 0.6-4.7 0.7-7 0.2 -5.3-1.3-9.3-5.8-10.1-11.5 -0.3-2.2-0.6-4.5-0.6-6.7V222c-0.6-5.3-2.9-10-6.8-13.6 -1.2-1.2-2.7-2.1-4.2-3 -1.5-0.9-2.3-2.1-2.2-3.8 0.2-1.8 1-3.3 2.7-4.1 1.2-0.5 2.5-0.8 3.8-1.1l49.5-11.7c1-0.2 2.1-0.5 3.1-0.6 1.7-0.1 2.8 0.8 3.1 2.4 0.2 1.4-0.1 2.7-0.9 3.8 -0.5 0.7-1.2 1.4-1.9 2 -6.6 6.9-9.9 15.2-10.5 24.6l-0.2 94.5 81.8-19.5 0-92.7c0-4.1-0.6-8.1-2.4-11.9 -1.9-4.1-4.6-7.4-8.7-9.5 -1.5-0.8-2.8-1.7-2.5-3.6 0.3-2.1 1-3.9 3.1-4.7 0.6-0.2 1.3-0.4 1.9-0.5l52.7-12.6c1.3-0.3 2.7-0.5 3.6 0.9C665.1 158.5 665.4 160.1 664.5 161.6z"></path><path d="M850.8 161.3c0 2.6-1.4 4.1-3.7 5 -1.2 0.5-2 0.2-2.8-0.8 -0.2-0.3-0.4-0.7-0.6-1 -3.9-5.7-9.5-8.2-16.2-8.2 -1.7 0-5.8 0.5-7.4 0.9l-27.8 6.7 0 90.2c0 2.5 0.2 5 0.6 7.5 1.2 7.3 4.4 13.2 11.3 16.6 2.1 1 2.5 2.9 1.6 5 -0.9 1.9-2.4 2.7-4.3 3.1l-52 12.4c-0.8 0.2-1.5 0.4-2.3 0.5 -1.7 0.2-2.8-0.8-3-2.4 -0.2-1.5 0.3-2.9 1.3-4 0.5-0.6 1.1-1.1 1.7-1.7 6.3-6.5 10.4-15 10.4-23.4v-95.4l-28.5 6.8c-8.5 2-15 6.9-20.1 13.7 -0.9 1.3-1.5 2.8-2.3 4.1 -0.5 0.9-1 1.9-1.7 2.6 -1 1.1-2.4 1-3.7 0.6 -1.1-0.4-1.6-1.3-1.6-2.4 0-0.9-0.1-1.8-0.1-2.8 0 0 0-43.6 0.1-44.5 0.1-2.2 1.3-3.7 3.5-4.3 0.6-0.2 1.3-0.4 1.9-0.5l139.9-33.4c1.2-0.3 2.3-0.6 3.5-0.7 1.7-0.2 2.7 0.7 2.9 2.5L850.8 161.3z"></path><path d="M1090.1 429.1l72.3-17.4c8.4-1.9 16.3-6.3 21.3-14.2 0.9-1.4 1.6-3 2.4-4.5 0.8-1.5 2.1-2.3 3.8-2.4 1.3 0 2.4 0.7 2.6 2l0.1 47.3c-0.2 2.6-1 3.9-3.6 4.5l-142.5 34.1c-0.9 0.2-1.8 0.4-2.7 0.3 -1.4 0-2.4-1.1-2.6-2.5 -0.2-2 0.6-3.6 2.1-4.9 5.2-4.3 7.8-10.2 9.8-16.4 1.2-3.8 1.6-7.7 1.6-11.7l0-96c0-2.9-0.3-5.8-0.7-8.7 -0.6-4-2.4-7.5-4.9-10.7 -1.4-1.8-3-3.3-5.1-4.2 -1.8-0.8-2.8-1.9-2.7-3.9 0.2-2.2 1.2-3.9 3.4-4.4l55.5-13.3c1.6-0.4 2.8 0.8 3.1 2.4 0.2 1.4 0 2.7-0.8 3.8 -0.5 0.6-1 1.2-1.6 1.8 -7.1 7.2-10.1 16-10.7 26V429.1z"></path><path d="M724.2 82.3c0 2.5-0.4 3-2.8 3.6l-73.2 17.5c-0.8 0.2-1.8 0.4-2.3 0.4 -0.6 0-1.4-0.3-1.6-0.8 -0.3-0.5-0.2-1.3 0-1.9 0.2-0.6 0.7-1.1 1.2-1.5 3.7-3.8 5.3-8.4 5.6-13.6 0.1-1.7 0-3.4 0-5.1l0-46c0-1.7-0.1-3.4-0.4-5.1 -0.5-3.4-2.2-6.2-5.2-8.1 -0.5-0.3-1-0.8-1.4-1.3 -0.5-0.8 0-2.2 0.9-2.7 0.8-0.4 1.7-0.7 2.6-0.9 22.7-5.4 45.5-10.8 68.2-16.3 3.2-0.7 4.1-0.4 4 3.1l0 21.2c0 0.9-0.1 1.9-0.4 2.7 -0.5 1.6-2.2 1.9-3.4 0.6 -0.6-0.7-1.2-1.4-1.9-2 -2.1-1.8-4.6-2.5-7.4-2.3 -0.9 0.1-1.8 0.2-2.7 0.4l-34.4 8.1 0 12.4 38.2-9.1 0.3 20.7 -38.5 9.2v11.9l37.5-9c2.7-0.6 6.1-1.3 7.7-2.5 2-1.6 3.7-3.3 5-5.5 0.5-0.8 0.9-1.7 1.5-2.3 0.4-0.4 0.9-0.6 1.8-0.6 0.8 0 1.1 0.7 1.1 1.4C724.1 58.7 724.2 82 724.2 82.3z"></path><path d="M597.3 82.5c0.1 0 0.1 0 0.2 0C597.5 82.8 597.4 82.8 597.3 82.5z"></path><path d="M622 107.6c0 1.2-0.6 2-1.7 2.4l-29.3 7c-1.3 0.1-2.2-1.2-1.7-2.4 0.2-0.6 0.6-1.2 1.1-1.6 4.4-4.2 6-9.5 6-15.4l0-14.7 -36.2 8.7v17.3c0 1.9 1 3.8 1.6 5.7 0.7 2 2.3 3.5 4.2 4.4 1.9 0.9 1.7 3.7-0.2 4.2 -0.8 0.2-28.3 6.8-28.9 6.9 -0.8 0.2-1.7 0.2-2-0.6 -0.2-0.7-0.1-1.2 0.1-1.9 0.1-0.5 0.7-1.1 1.1-1.5 3.7-3.6 5-8.2 5.4-13.2 0.1-0.8 0.1-1.5 0.1-2.3V61.4c0-1.4 0-2.9-0.2-4.3 -0.5-4-2-7.3-5.6-9.5 -1.8-1.1-1.6-3.8 0.4-4.3l29.4-7c0.7-0.2 1.6 1.1 1.6 1.9 0 1.2-0.7 2-1.5 2.7 -3 2.3-4.7 7.6-5.3 10.3 -0.1 0.3-0.2 2-0.2 3.1l0 16.5 36.1-8.6 -0.1-15.5c0 0-0.1-3.3-0.3-4.2 -0.7-3.2-2.1-6.1-5.1-7.6 -0.9-0.4-1.6-1-1.5-2.1 0.1-1.3 0.7-2.2 2.1-2.6l28.1-6.7c0.8-0.2 1.6-0.2 2.2 0.5 0.5 0.7 0.5 1.8 0 2.6 -0.3 0.4-0.7 0.8-1 1.2 -4 4.3-5.7 9.3-5.7 15.1l0 51.3c0 1.7 0.3 3.4 0.7 5.1 0.8 2.9 2.3 5.3 5.2 6.7C621.5 106.1 622 106.7 622 107.6z"></path><path d="M512.6 74.7c0 1.2 0 2.4-1.2 3.2 -0.7 0.5-1.5 0.6-2.2 0 -0.4-0.4-0.6-0.8-1-1.2 -2.5-2.8-5.6-4.4-9.2-3.6l-17.4 4.2c0 0 0 49.8 0 50.3 0.3 4.3 1.9 7.9 5.7 10.3 2 1.2 2 3.6-0.2 4.2l-27.7 6.6c-0.7 0.2-2.4 0.4-3-0.2 -0.6-0.6-0.4-1.4-0.1-2.2 0.2-0.5 0.6-0.9 1-1.2 4.1-4.2 5.8-9.3 5.8-15.1 0-14.5 0-48.2 0-48.2l-14.9 3.6c-5.3 1.3-9.2 4.4-12 9.1 -0.4 0.7-0.8 1.4-1.3 1.9 -0.8 0.9-2.2 0.5-2.6-0.7 -0.1-0.5-0.2-1.1-0.2-1.6l0-23.1c0.1-1.6 0.8-2.7 2.5-3.1 0 0 50.6-12.2 75.5-18 1.3-0.3 2.6 0.9 2.6 2.2L512.6 74.7z"></path><path d="M1009.6 480.8l-34-52 2.3-2.1c10.8-9.6 18.4-19.5 21.9-33.5 1.9-7.8 1.9-17.6 0.4-25.4 0 0 0 0 0 0 -0.3-1.8-0.8-3.6-1.3-5.5 -3.3-10.7-9.7-18.9-20.2-23.6 -7.7-3.4-15.9-4-24-2l-106 25.4c-1.2 0.3-3.1 0.8-3.4 0.9 -1.8 0.9-2.9 2.2-3.2 4.2 -0.2 1.9 0.8 3.2 2.5 4.1 5.7 3.1 8.8 8.2 10.2 14.4 0.7 3.1 0.7 6.3 0.7 9.5l0 98.4c-0.1 3.9-0.8 7.6-2.1 11.2 -2.1 5.7-4.8 10.9-9.4 14.9 -1.2 1-1.8 2.2-1.9 3.8 -0.1 1.9 1.3 3.6 3.2 3.1l56.2-13.4c1.6-0.8 2.6-2.2 2.7-4.1 0.1-1.8-0.9-2.9-2.5-3.6 -3.3-1.4-5.5-4-7.3-7 -2.6-4.2-3.5-8.8-3.6-13.6l0-31.4 45.9-11c0 0 14.7 22.8 19.9 30.7 2.1 3.3 3.6 6.8 4.3 10.6 0.6 3.2 0.5 6.3-1.6 9.1 -0.6 0.8-1 1.9-1.2 2.9 -0.4 2.1 1.1 3.7 3.2 3.3 1.2-0.3 41.7-9.9 45.5-10.9C1009.9 487.3 1011.8 484 1009.6 480.8zM956.8 398.8c0 0-65.9 15.7-65.9 15.7V391.2c0 0 62-14.8 62-14.8 4.9-1.1 11.2 1.6 12.9 7.6 0 0.1 0-0.1 0 0C967.3 390.4 964.2 397.1 956.8 398.8z"></path><path d="M233.3 83.5c-118.9 0-215.2 96.4-215.2 215.2 0 62.7 26.8 119.1 69.5 158.4l63.1-15.1c-49.5-28.6-82.8-82-82.8-143.3 0-91.3 74-165.4 165.4-165.4 91.3 0 165.4 74 165.4 165.4 0 33.4-9.9 64.4-26.9 90.4l63.2-15.1c8.8-23.4 13.6-48.8 13.6-75.3C448.5 179.8 352.2 83.5 233.3 83.5z"></path></svg>
